# xmcd
#
# Track frame offsets:
#	150
#	19809
#	34349
#	49597
#	63391
#	79360
#	86553
#	105052
#	120750
#	131380
#	150159
#	153552
#	170986
#	194297
#	213868
#
# Disc length: 3057 seconds
#
# Revision: 0
# Processed by: cddbd v1.5.1PL2 Copyright (c) Steve Scherf et al.
# Submitted via: audiograbber 1.81.02
#
DISCID=b50bef0f
DTITLE=Clueso - weit weg (Promo-CD)
DYEAR=2006
DGENRE=Hip Hop
TTITLE0=Frische Luft - Promo -
TTITLE1=Sterblich - Promo -
TTITLE2=Machs gut - Promo -
TTITLE3=Bleib einfach hier - Promo -
TTITLE4=Da wohnt so ein Typ feat. Max Herre - Promo -
TTITLE5=weit weg feat. New Telephatics - Promo -
TTITLE6=Schwer - Promo -
TTITLE7=Chicago - Promo -
TTITLE8=Mein Bestes - Promo -
TTITLE9=viel gesehen - Promo -
TTITLE10=Ey Tino! - Promo -
TTITLE11=Überall bist du - Promo -
TTITLE12=Morgen gestern feat. Immo - Promo -
TTITLE13=Crash - Promo -
TTITLE14=Hirn ein  - Promo -
EXTD=Promo-CD
EXTT0=
EXTT1=
EXTT2=
EXTT3=
EXTT4=
EXTT5=
EXTT6=
EXTT7=
EXTT8=
EXTT9=
EXTT10=
EXTT11=
EXTT12=
EXTT13=
EXTT14=
PLAYORDER=
